<mxfile host="65bd71144e">
    <diagram id="YYZY1Lt_C1Jr21OVEaK_" name="Page-1">
        <mxGraphModel dx="2080" dy="1204" grid="1" gridSize="10" guides="1" tooltips="1" connect="1" arrows="1" fold="1" page="0" pageScale="1" pageWidth="1169" pageHeight="827" background="#FFFFFF" math="0" shadow="0">
            <root>
                <mxCell id="0"/>
                <mxCell id="1" parent="0"/>
                <mxCell id="2" style="edgeStyle=none;html=1;exitX=1;exitY=0.5;exitDx=0;exitDy=0;entryX=0;entryY=0.5;entryDx=0;entryDy=0;fontSize=24;shadow=0;" edge="1" parent="1" source="3" target="7">
                    <mxGeometry relative="1" as="geometry"/>
                </mxCell>
                <mxCell id="3" value="&lt;font style=&quot;font-size: 30px;&quot;&gt;RIVER pix2pix&lt;/font&gt;" style="rounded=1;whiteSpace=wrap;html=1;fillColor=#dae8fc;strokeColor=#6c8ebf;shadow=0;" vertex="1" parent="1">
                    <mxGeometry x="320" y="40" width="280" height="200" as="geometry"/>
                </mxCell>
                <mxCell id="4" style="edgeStyle=none;html=1;exitX=1;exitY=0.5;exitDx=0;exitDy=0;entryX=0;entryY=0.5;entryDx=0;entryDy=0;fontSize=24;shadow=0;" edge="1" parent="1" source="5" target="3">
                    <mxGeometry relative="1" as="geometry"/>
                </mxCell>
                <mxCell id="5" value="DomainA&lt;br&gt;Image&lt;br&gt;(RIVER)" style="whiteSpace=wrap;html=1;aspect=fixed;fontSize=24;fillColor=#eeeeee;strokeColor=#36393d;shadow=0;" vertex="1" parent="1">
                    <mxGeometry x="40" y="40" width="200" height="200" as="geometry"/>
                </mxCell>
                <mxCell id="6" style="edgeStyle=orthogonalEdgeStyle;html=1;exitX=1;exitY=0.5;exitDx=0;exitDy=0;entryX=1;entryY=0.5;entryDx=0;entryDy=0;fontSize=24;startArrow=none;startFill=0;shadow=0;endArrow=none;endFill=0;" edge="1" parent="1" source="7" target="8">
                    <mxGeometry relative="1" as="geometry">
                        <Array as="points">
                            <mxPoint x="920" y="140"/>
                            <mxPoint x="920" y="460"/>
                        </Array>
                    </mxGeometry>
                </mxCell>
                <mxCell id="7" value="Generated&lt;br&gt;DomainB&lt;br&gt;Image&lt;br&gt;(RIVER)" style="whiteSpace=wrap;html=1;aspect=fixed;fontSize=24;fillColor=#b1ddf0;strokeColor=#10739e;shadow=0;" vertex="1" parent="1">
                    <mxGeometry x="680" y="40" width="200" height="200" as="geometry"/>
                </mxCell>
                <mxCell id="8" value="Real&lt;br&gt;DomainB&lt;br&gt;Image&lt;br&gt;(RIVER)" style="whiteSpace=wrap;html=1;aspect=fixed;fontSize=24;fillColor=#bac8d3;strokeColor=#23445d;shadow=0;" vertex="1" parent="1">
                    <mxGeometry x="680" y="360" width="200" height="200" as="geometry"/>
                </mxCell>
                <mxCell id="9" style="edgeStyle=orthogonalEdgeStyle;html=1;exitX=0;exitY=0.5;exitDx=0;exitDy=0;shadow=0;fontSize=24;startArrow=classic;startFill=1;endArrow=none;endFill=0;" edge="1" parent="1" source="10">
                    <mxGeometry relative="1" as="geometry">
                        <mxPoint x="920" y="299.90909090909076" as="targetPoint"/>
                    </mxGeometry>
                </mxCell>
                <mxCell id="10" value="Discriminator" style="rounded=1;whiteSpace=wrap;html=1;shadow=0;fontSize=24;fillColor=#f8cecc;strokeColor=#b85450;align=center;" vertex="1" parent="1">
                    <mxGeometry x="960" y="240" width="160" height="120" as="geometry"/>
                </mxCell>
            </root>
        </mxGraphModel>
    </diagram>
</mxfile>